# xmcd
#
# Track frame offsets: 
#        150
#        18682
#        35136
#        51916
#        64448
#        78500
#        92356
#        113559
#        130764
#        148549
#        164759
#        177849
#        189989
#        208072
#
# Disc length: 3049 seconds
#
# Revision: 0
# Processed by: cddbd v1.5.2PL0 Copyright (c) Steve Scherf et al.
# Submitted via: ExactAudioCopy v0.99pb5
#
DISCID=c80be70e
DTITLE=Jette Trop - Close To You
DYEAR=2011
DGENRE=Pop
TTITLE0=Those good old dreams
TTITLE1=All you get from love is a love song
TTITLE2=Close to you
TTITLE3=There's a kind of hush
TTITLE4=We've only just begun
TTITLE5=Top of the world
TTITLE6=When it's gone (it's just gone)
TTITLE7=Only yesterday
TTITLE8=For all we know
TTITLE9=Rainy days and Mondays
TTITLE10=It's going to take some time
TTITLE11=Please Mr. Postman
TTITLE12=Yesterday once more 
TTITLE13=Ordinary fool
EXTD=
EXTT0=
EXTT1=
EXTT2=
EXTT3=
EXTT4=
EXTT5=
EXTT6=
EXTT7=
EXTT8=
EXTT9=
EXTT10=
EXTT11=
EXTT12=
EXTT13=
PLAYORDER=
